<?xml version="1.0" encoding="utf-8"?>
<!-- Generator: Adobe Illustrator 24.0.3, SVG Export Plug-In . SVG Version: 6.00 Build 0)  -->
<svg version="1.1" id="Layer_1" xmlns="http://www.w3.org/2000/svg" xmlns:xlink="http://www.w3.org/1999/xlink" x="0px" y="0px"
	 viewBox="0 0 372 128.77" style="enable-background:new 0 0 372 128.77;" xml:space="preserve">
<style type="text/css">
	.st0{clip-path:url(#SVGID_2_);fill:#FDB714;}
	.st1{clip-path:url(#SVGID_2_);fill:#F99D20;}
	.st2{clip-path:url(#SVGID_2_);fill:#FCC5A1;}
	.st3{clip-path:url(#SVGID_2_);fill:#FFD49A;}
	.st4{clip-path:url(#SVGID_2_);fill:#BFD430;}
	.st5{clip-path:url(#SVGID_2_);}
</style>
<g>
	<defs>
		<rect id="SVGID_1_" width="372" height="128.77"/>
	</defs>
	<clipPath id="SVGID_2_">
		<use xlink:href="#SVGID_1_"  style="overflow:visible;"/>
	</clipPath>
	<path class="st0" d="M226.03,66.33c3.62,22.47,28.21,39.94,51.21,34.98c8.77-1.89,15.77-7.1,12.22-26.77
		c-1.66-9.2,4.51-13.5,2.49-27.94c-2.95-21.07-27.69-25.4-42.25-20.42C236.04,30.85,222.65,45.36,226.03,66.33"/>
	<path class="st1" d="M284.43,32.1c-6.01-5.44-14.62-7.8-22.73-7.8c-4.3,0-8.45,0.66-12,1.88c-13.66,4.67-27.05,19.19-23.67,40.16
		c0.04,0.28,0.11,0.55,0.16,0.82c6.49,14.9,20.81,27.48,41.35,20.55c7.71-2.6,7.76-11.72,5.12-28.29
		c-1.24-7.75,13.93-11.72,12.51-23.91C285.03,34.3,284.77,33.17,284.43,32.1"/>
	<path class="st2" d="M275.39,32.4c-2.9,0-5.25,2.29-5.25,5.12c0,2.83,2.35,5.12,5.25,5.12c2.9,0,5.25-2.29,5.25-5.12
		C280.64,34.69,278.29,32.4,275.39,32.4"/>
	<path class="st3" d="M281.85,46.18c-0.06,0-0.12,0-0.18,0.01c-0.93,1.14-1.95,2.2-2.97,3.22c0.08,1.62,1.46,2.91,3.14,2.91
		c1.74,0,3.15-1.37,3.15-3.07C285,47.56,283.59,46.18,281.85,46.18"/>
	<path class="st2" d="M281.67,46.19c-1.66,0.09-2.97,1.43-2.97,3.07c0,0.05,0,0.1,0,0.15C279.72,48.39,280.75,47.33,281.67,46.19"/>
	<path class="st4" d="M246.71,0.93c0,0,8.48,12.14,7.14,21.53c0,0,3.73-12.44-3.17-22.46L246.71,0.93z M232.47,6.12
		c8.95-0.41,11.54,2.53,12.52,3.7c-3.01-0.37-12.44-0.69-26.93,6.44c-1.53,0.71-2.38,1.21-2.38,1.21c0.81-0.43,1.6-0.83,2.38-1.21
		c4.51-2.1,14.97-6.05,27.3-4.7c-0.48,8.6-14.5,9.6-21.13,8.44c-6.94-1.22-22.11,7.16-22.11,7.16S221.21,6.63,232.47,6.12"/>
	<path class="st5" d="M294.05,64.19c0.93,0,1.69-0.76,1.69-1.69s-0.76-1.69-1.69-1.69c-0.93,0-1.69,0.76-1.69,1.69
		S293.12,64.19,294.05,64.19 M334.89,101.45h1.4c9.76,0,18.15-3.62,25.18-10.86C368.49,83.35,372,74.83,372,65.04
		c0-9.79-3.54-18.23-10.63-25.32c-7.09-7.09-15.64-10.63-25.64-10.63c-10.01,0-18.59,3.56-25.74,10.68
		c-7.15,7.12-10.72,15.54-10.72,25.27c0,9.73,3.53,18.23,10.58,25.5C316.9,97.82,325.25,101.45,334.89,101.45 M359.13,88.87
		c-6.53,6.59-14.36,9.89-23.5,9.89c-9.14,0-16.97-3.29-23.5-9.89c-6.53-6.59-9.79-14.47-9.79-23.64c0-9.17,3.26-17.03,9.79-23.59
		c6.53-6.56,14.38-9.84,23.55-9.84c9.17,0,17,3.28,23.5,9.84c6.5,6.56,9.74,14.42,9.74,23.59C368.92,74.4,365.66,82.28,359.13,88.87
		 M204.65,29.24c4.09-2.22,15.86-7.76,21.11-6.86c4.93,0.85,15.4,0.52,19.8-6.77c0.43-0.72,0.2-1.65-0.52-2.09
		c-0.72-0.43-1.65-0.2-2.09,0.52c-3.29,5.46-11.78,6.19-16.68,5.35c-7.37-1.27-22.44,6.84-23.08,7.18c-0.74,0.4-1.01,1.32-0.61,2.06
		c0.28,0.51,0.8,0.8,1.34,0.8C204.17,29.42,204.42,29.36,204.65,29.24 M254.71,24.62c1.39-9.77-6.99-21.89-7.34-22.4
		c-0.48-0.69-1.43-0.85-2.12-0.37c-0.69,0.48-0.85,1.43-0.37,2.12c0.08,0.12,8.05,11.63,6.82,20.23c-0.12,0.83,0.46,1.6,1.29,1.72
		l0.22,0.02C253.95,25.93,254.6,25.38,254.71,24.62 M277.34,102.46c0.82-0.18,1.34-0.99,1.17-1.81c-0.18-0.82-0.99-1.34-1.81-1.17
		c-10.29,2.22-21.66-0.24-31.19-6.75c-9.62-6.57-16.09-16.28-17.76-26.66c-3.19-19.81,9.41-33.64,22.47-38.11
		c0.8-0.27,1.22-1.14,0.95-1.93c-0.27-0.79-1.13-1.22-1.93-0.95c-14.23,4.86-27.96,19.92-24.49,41.47
		c1.8,11.2,8.75,21.65,19.05,28.69c7.74,5.29,16.63,8.08,25.32,8.08C271.89,103.32,274.65,103.04,277.34,102.46 M272.57,74.02
		c7.14-0.94,13.78-3.59,19.22-7.67c0.67-0.5,0.81-1.46,0.3-2.13c-0.5-0.67-1.46-0.81-2.13-0.3c-5.02,3.77-11.17,6.22-17.79,7.08
		c-2.04,0.27-4.18,0.35-6.35,0.25c-0.85-0.03-1.55,0.61-1.59,1.45c-0.04,0.84,0.61,1.55,1.45,1.59c0.65,0.03,1.3,0.05,1.94,0.05
		C269.3,74.34,270.96,74.23,272.57,74.02 M81.5,100.24h2.89l13.05-26.67h37.39l13.24,26.67h3.26l-34.97-71.62L81.5,100.24z
		 M116.1,35.06l17.62,35.81H98.66L116.1,35.06z M161.13,100.24h2.71V37.95l51.47,63.32V30.3h-2.71v62.2l-51.47-63.22V100.24z
		 M67.42,30.3L35.9,94.83L4.48,30.3H0v69.94h2.8v-66.3l32.82,67.61l33.01-67.61v66.3h3.08V30.3H67.42z"/>
	<path class="st5" d="M232.89,128.34h1.56v-7.95h7.88v-1.42h-7.88v-5.96h8.47v-1.42h-10.03V128.34z M247.01,123.5
		c0.43,1.08,1.02,2.01,1.77,2.79c0.76,0.78,1.67,1.39,2.73,1.82c1.06,0.43,2.23,0.65,3.51,0.65c1.28,0,2.45-0.22,3.51-0.65
		c1.06-0.43,1.97-1.04,2.73-1.82c0.76-0.78,1.35-1.71,1.77-2.79c0.43-1.08,0.64-2.26,0.64-3.54s-0.21-2.45-0.64-3.52
		c-0.42-1.07-1.02-2-1.77-2.78c-0.76-0.78-1.67-1.39-2.73-1.83c-1.07-0.44-2.24-0.66-3.51-0.66c-1.28,0-2.45,0.22-3.51,0.66
		c-1.06,0.44-1.97,1.05-2.73,1.83c-0.76,0.78-1.35,1.71-1.77,2.78c-0.43,1.07-0.64,2.25-0.64,3.52S246.58,122.42,247.01,123.5
		 M248.43,117.06c0.33-0.9,0.8-1.68,1.42-2.34c0.62-0.66,1.36-1.18,2.24-1.56c0.88-0.38,1.86-0.57,2.94-0.57s2.07,0.19,2.94,0.57
		c0.88,0.38,1.62,0.9,2.24,1.56c0.62,0.66,1.09,1.44,1.42,2.34c0.33,0.9,0.5,1.87,0.5,2.91c0,1.04-0.17,2.01-0.5,2.91
		c-0.33,0.9-0.8,1.68-1.42,2.34c-0.61,0.66-1.36,1.18-2.24,1.56c-0.87,0.38-1.86,0.57-2.94,0.57s-2.07-0.19-2.94-0.57
		c-0.88-0.38-1.62-0.9-2.24-1.56c-0.61-0.66-1.09-1.44-1.42-2.34c-0.33-0.9-0.5-1.87-0.5-2.91
		C247.93,118.93,248.1,117.96,248.43,117.06 M270.16,113.01h3.31c0.82,0,1.49,0.1,2,0.31c0.51,0.21,0.91,0.46,1.19,0.76
		c0.28,0.3,0.48,0.62,0.58,0.97c0.1,0.35,0.15,0.66,0.15,0.95c0,0.28-0.05,0.6-0.15,0.95c-0.1,0.35-0.3,0.67-0.58,0.97
		c-0.28,0.3-0.68,0.55-1.19,0.76c-0.51,0.21-1.18,0.31-2,0.31h-3.31V113.01z M268.6,128.34h1.56v-7.95h2.91l4.71,7.95h1.77
		l-4.87-8.04c0.46-0.06,0.94-0.17,1.44-0.33c0.5-0.16,0.96-0.4,1.38-0.72c0.42-0.32,0.76-0.74,1.04-1.26
		c0.28-0.52,0.41-1.18,0.41-1.99c0-0.72-0.12-1.34-0.36-1.85c-0.24-0.5-0.54-0.92-0.9-1.25c-0.36-0.33-0.77-0.58-1.23-0.76
		c-0.46-0.17-0.91-0.3-1.35-0.38c-0.44-0.08-0.85-0.13-1.23-0.14c-0.38-0.02-0.68-0.02-0.9-0.02h-4.4V128.34z M290.57,126.23
		c0.66,0.92,1.46,1.57,2.39,1.95c0.93,0.39,1.95,0.58,3.05,0.58c0.68,0,1.33-0.1,1.96-0.31c0.63-0.21,1.19-0.51,1.67-0.91
		c0.48-0.4,0.86-0.89,1.15-1.48c0.28-0.58,0.43-1.25,0.43-2.01c0-1.04-0.21-1.86-0.64-2.45c-0.43-0.59-0.96-1.05-1.6-1.38
		c-0.64-0.33-1.33-0.59-2.08-0.79c-0.75-0.2-1.44-0.43-2.08-0.69c-0.64-0.26-1.17-0.61-1.6-1.06c-0.43-0.45-0.64-1.09-0.64-1.93
		c0-0.54,0.1-1,0.31-1.4c0.21-0.39,0.48-0.72,0.82-0.98c0.34-0.26,0.74-0.46,1.19-0.59c0.46-0.13,0.94-0.2,1.44-0.2
		c0.72,0,1.35,0.14,1.88,0.41c0.53,0.28,0.99,0.69,1.38,1.24l1.35-0.97c-0.57-0.76-1.24-1.3-2.02-1.62
		c-0.78-0.32-1.63-0.49-2.54-0.49c-0.71,0-1.39,0.1-2.03,0.3c-0.65,0.2-1.22,0.49-1.71,0.88c-0.5,0.39-0.89,0.87-1.18,1.44
		c-0.29,0.58-0.44,1.23-0.44,1.97c0,0.79,0.12,1.45,0.37,1.99c0.24,0.54,0.57,0.98,0.98,1.34c0.41,0.36,0.87,0.64,1.38,0.86
		c0.51,0.22,1.04,0.42,1.58,0.59c0.54,0.17,1.07,0.35,1.58,0.52c0.51,0.17,0.97,0.38,1.38,0.63c0.41,0.24,0.74,0.56,0.98,0.93
		c0.24,0.38,0.37,0.86,0.37,1.44c0,0.5-0.1,0.96-0.29,1.36c-0.2,0.4-0.47,0.74-0.8,1.03c-0.34,0.28-0.74,0.5-1.19,0.66
		c-0.46,0.16-0.95,0.24-1.47,0.24c-0.84,0-1.58-0.17-2.23-0.52c-0.65-0.35-1.19-0.88-1.6-1.58L290.57,126.23z M304.01,128.34h1.63
		l1.89-4.44h8.87l1.82,4.44h1.75l-7.05-16.74h-1.61L304.01,128.34z M315.83,122.47h-7.69l3.9-9.18L315.83,122.47z M323.8,128.34
		h9.37v-1.42h-7.8V111.6h-1.56V128.34z M336.59,123.5c0.43,1.08,1.02,2.01,1.77,2.79c0.76,0.78,1.67,1.39,2.73,1.82
		c1.06,0.43,2.23,0.65,3.51,0.65s2.45-0.22,3.51-0.65c1.06-0.43,1.98-1.04,2.73-1.82c0.76-0.78,1.35-1.71,1.77-2.79
		c0.43-1.08,0.64-2.26,0.64-3.54s-0.21-2.45-0.64-3.52c-0.43-1.07-1.02-2-1.77-2.78c-0.76-0.78-1.67-1.39-2.73-1.83
		c-1.06-0.44-2.23-0.66-3.51-0.66s-2.45,0.22-3.51,0.66c-1.06,0.44-1.98,1.05-2.73,1.83c-0.76,0.78-1.35,1.71-1.77,2.78
		c-0.42,1.07-0.64,2.25-0.64,3.52S336.17,122.42,336.59,123.5 M338.01,117.06c0.33-0.9,0.8-1.68,1.42-2.34
		c0.62-0.66,1.36-1.18,2.24-1.56c0.87-0.38,1.86-0.57,2.94-0.57c1.09,0,2.07,0.19,2.94,0.57c0.88,0.38,1.62,0.9,2.23,1.56
		c0.62,0.66,1.09,1.44,1.42,2.34c0.33,0.9,0.5,1.87,0.5,2.91c0,1.04-0.17,2.01-0.5,2.91c-0.33,0.9-0.8,1.68-1.42,2.34
		c-0.61,0.66-1.36,1.18-2.23,1.56c-0.87,0.38-1.86,0.57-2.94,0.57c-1.09,0-2.07-0.19-2.94-0.57c-0.88-0.38-1.62-0.9-2.24-1.56
		c-0.61-0.66-1.09-1.44-1.42-2.34c-0.33-0.9-0.5-1.87-0.5-2.91C337.52,118.93,337.68,117.96,338.01,117.06 M358.19,128.34h1.56
		v-14.66h0.05l10.19,14.66H372V111.6h-1.56v14.66h-0.05L360.2,111.6h-2.01V128.34z"/>
</g>
</svg>
